<mxfile host="app.diagrams.net" agent="Mozilla/5.0 (Windows NT 10.0; Win64; x64) AppleWebKit/537.36 (KHTML, like Gecko) Chrome/131.0.0.0 Safari/537.36 OPR/116.0.0.0" version="25.0.3">
  <diagram name="Page-1" id="p0PCvUn_RvWP_jl1tdYO">
    <mxGraphModel dx="1008" dy="537" grid="1" gridSize="10" guides="1" tooltips="1" connect="1" arrows="1" fold="1" page="1" pageScale="1" pageWidth="827" pageHeight="1169" math="0" shadow="0">
      <root>
        <mxCell id="0" />
        <mxCell id="1" parent="0" />
        <mxCell id="OJVGdneZ2bSW5PHk3a6j-5" value="Sprint 1 (Módulo de Configuração Centralizada)" style="swimlane;whiteSpace=wrap;html=1;" vertex="1" parent="1">
          <mxGeometry x="20" y="20" width="700" height="400" as="geometry" />
        </mxCell>
        <mxCell id="OJVGdneZ2bSW5PHk3a6j-10" value="ConfigManager" style="swimlane;fontStyle=1;align=center;verticalAlign=top;childLayout=stackLayout;horizontal=1;startSize=26;horizontalStack=0;resizeParent=1;resizeParentMax=0;resizeLast=0;collapsible=1;marginBottom=0;whiteSpace=wrap;html=1;" vertex="1" parent="OJVGdneZ2bSW5PHk3a6j-5">
          <mxGeometry x="217" y="60" width="266" height="294" as="geometry" />
        </mxCell>
        <mxCell id="OJVGdneZ2bSW5PHk3a6j-11" value="- dbConnectionString: String" style="text;strokeColor=none;fillColor=none;align=left;verticalAlign=top;spacingLeft=4;spacingRight=4;overflow=hidden;rotatable=0;points=[[0,0.5],[1,0.5]];portConstraint=eastwest;whiteSpace=wrap;html=1;" vertex="1" parent="OJVGdneZ2bSW5PHk3a6j-10">
          <mxGeometry y="26" width="266" height="26" as="geometry" />
        </mxCell>
        <mxCell id="OJVGdneZ2bSW5PHk3a6j-27" value="&lt;u&gt;-instance: ConfigManager&lt;/u&gt;" style="text;strokeColor=none;fillColor=none;align=left;verticalAlign=top;spacingLeft=4;spacingRight=4;overflow=hidden;rotatable=0;points=[[0,0.5],[1,0.5]];portConstraint=eastwest;whiteSpace=wrap;html=1;" vertex="1" parent="OJVGdneZ2bSW5PHk3a6j-10">
          <mxGeometry y="52" width="266" height="26" as="geometry" />
        </mxCell>
        <mxCell id="OJVGdneZ2bSW5PHk3a6j-28" value="- ALGORITHM: String" style="text;strokeColor=none;fillColor=none;align=left;verticalAlign=top;spacingLeft=4;spacingRight=4;overflow=hidden;rotatable=0;points=[[0,0.5],[1,0.5]];portConstraint=eastwest;whiteSpace=wrap;html=1;" vertex="1" parent="OJVGdneZ2bSW5PHk3a6j-10">
          <mxGeometry y="78" width="266" height="26" as="geometry" />
        </mxCell>
        <mxCell id="OJVGdneZ2bSW5PHk3a6j-29" value="- SECRET_KEY: String" style="text;strokeColor=none;fillColor=none;align=left;verticalAlign=top;spacingLeft=4;spacingRight=4;overflow=hidden;rotatable=0;points=[[0,0.5],[1,0.5]];portConstraint=eastwest;whiteSpace=wrap;html=1;" vertex="1" parent="OJVGdneZ2bSW5PHk3a6j-10">
          <mxGeometry y="104" width="266" height="26" as="geometry" />
        </mxCell>
        <mxCell id="OJVGdneZ2bSW5PHk3a6j-12" value="" style="line;strokeWidth=1;fillColor=none;align=left;verticalAlign=middle;spacingTop=-1;spacingLeft=3;spacingRight=3;rotatable=0;labelPosition=right;points=[];portConstraint=eastwest;strokeColor=inherit;" vertex="1" parent="OJVGdneZ2bSW5PHk3a6j-10">
          <mxGeometry y="130" width="266" height="8" as="geometry" />
        </mxCell>
        <mxCell id="OJVGdneZ2bSW5PHk3a6j-18" value="- configManager()" style="text;strokeColor=none;fillColor=none;align=left;verticalAlign=top;spacingLeft=4;spacingRight=4;overflow=hidden;rotatable=0;points=[[0,0.5],[1,0.5]];portConstraint=eastwest;whiteSpace=wrap;html=1;" vertex="1" parent="OJVGdneZ2bSW5PHk3a6j-10">
          <mxGeometry y="138" width="266" height="26" as="geometry" />
        </mxCell>
        <mxCell id="OJVGdneZ2bSW5PHk3a6j-13" value="+ &lt;u&gt;getInstance() : ConfigManager&lt;/u&gt;" style="text;strokeColor=none;fillColor=none;align=left;verticalAlign=top;spacingLeft=4;spacingRight=4;overflow=hidden;rotatable=0;points=[[0,0.5],[1,0.5]];portConstraint=eastwest;whiteSpace=wrap;html=1;" vertex="1" parent="OJVGdneZ2bSW5PHk3a6j-10">
          <mxGeometry y="164" width="266" height="26" as="geometry" />
        </mxCell>
        <mxCell id="OJVGdneZ2bSW5PHk3a6j-24" value="+ getConnectionString(): String" style="text;strokeColor=none;fillColor=none;align=left;verticalAlign=top;spacingLeft=4;spacingRight=4;overflow=hidden;rotatable=0;points=[[0,0.5],[1,0.5]];portConstraint=eastwest;whiteSpace=wrap;html=1;" vertex="1" parent="OJVGdneZ2bSW5PHk3a6j-10">
          <mxGeometry y="190" width="266" height="26" as="geometry" />
        </mxCell>
        <mxCell id="OJVGdneZ2bSW5PHk3a6j-25" value="+ setConnectionString(): String" style="text;strokeColor=none;fillColor=none;align=left;verticalAlign=top;spacingLeft=4;spacingRight=4;overflow=hidden;rotatable=0;points=[[0,0.5],[1,0.5]];portConstraint=eastwest;whiteSpace=wrap;html=1;" vertex="1" parent="OJVGdneZ2bSW5PHk3a6j-10">
          <mxGeometry y="216" width="266" height="26" as="geometry" />
        </mxCell>
        <mxCell id="OJVGdneZ2bSW5PHk3a6j-26" value="+ getALGORITHM(): String" style="text;strokeColor=none;fillColor=none;align=left;verticalAlign=top;spacingLeft=4;spacingRight=4;overflow=hidden;rotatable=0;points=[[0,0.5],[1,0.5]];portConstraint=eastwest;whiteSpace=wrap;html=1;" vertex="1" parent="OJVGdneZ2bSW5PHk3a6j-10">
          <mxGeometry y="242" width="266" height="26" as="geometry" />
        </mxCell>
        <mxCell id="OJVGdneZ2bSW5PHk3a6j-30" value="+ setALGORITHM(): String" style="text;strokeColor=none;fillColor=none;align=left;verticalAlign=top;spacingLeft=4;spacingRight=4;overflow=hidden;rotatable=0;points=[[0,0.5],[1,0.5]];portConstraint=eastwest;whiteSpace=wrap;html=1;" vertex="1" parent="OJVGdneZ2bSW5PHk3a6j-10">
          <mxGeometry y="268" width="266" height="26" as="geometry" />
        </mxCell>
      </root>
    </mxGraphModel>
  </diagram>
</mxfile>
